# xmcd CD database file
#
# Track frame offsets:
#	150
#	11744
#	24627
#	40899
#
# Disc length: 760 seconds
#
# Revision: 3
# Processed by: cddbd v1.5.1PL0 Copyright (c) Steve Scherf et al.
# Submitted via: CDex 1.51
#
DISCID=2902f604
DTITLE=Stinchi di Santo - Demo2004
DYEAR=2004
DGENRE=Rock Demenziale
TTITLE0=Stinco Attacco
TTITLE1=Rambo
TTITLE2=Pippi (Studio Version)
TTITLE3=Cover (io odio)
EXTD=YEAR: 2004
EXTT0=
EXTT1=
EXTT2=
EXTT3=
PLAYORDER=
